<?xml version="1.0" encoding="UTF-8"?>
<svg width="800" height="600" viewBox="0 0 800 600" fill="none" xmlns="http://www.w3.org/2000/svg">
  <!-- Background shapes -->
  <circle cx="400" cy="300" r="250" fill="#EFF6FF" />
  <circle cx="400" cy="300" r="200" fill="#DBEAFE" />
  
  <!-- Main illustration elements -->
  <rect x="300" y="200" width="200" height="200" rx="20" fill="white" stroke="#3B82F6" stroke-width="2"/>
  
  <!-- Dashboard elements -->
  <rect x="320" y="220" width="40" height="40" rx="5" fill="#3B82F6" opacity="0.2"/>
  <rect x="380" y="220" width="100" height="20" rx="5" fill="#3B82F6" opacity="0.2"/>
  <rect x="320" y="280" width="160" height="20" rx="5" fill="#3B82F6" opacity="0.2"/>
  <rect x="320" y="320" width="120" height="20" rx="5" fill="#3B82F6" opacity="0.2"/>
  <rect x="320" y="360" width="140" height="20" rx="5" fill="#3B82F6" opacity="0.2"/>
  
  <!-- Decorative elements -->
  <circle cx="200" cy="200" r="30" fill="#3B82F6" opacity="0.1"/>
  <circle cx="600" cy="400" r="40" fill="#3B82F6" opacity="0.1"/>
  <circle cx="150" cy="450" r="25" fill="#3B82F6" opacity="0.1"/>
  <circle cx="650" cy="150" r="35" fill="#3B82F6" opacity="0.1"/>
  
  <!-- Icons -->
  <path d="M340 240 L360 240 L360 260 L340 260 Z" fill="#3B82F6"/>
  <path d="M400 240 L420 240 L420 260 L400 260 Z" fill="#3B82F6"/>
  <path d="M460 240 L480 240 L480 260 L460 260 Z" fill="#3B82F6"/>
</svg> 